<?xml version="1.0" encoding="UTF-8"?>
<svg xmlns="http://www.w3.org/2000/svg" fill="none" viewBox="0 0 139 22"><g clip-path="url(#logoWithText_svg__clip0_2695_63363)"><path fill="#000000" d="M4.656 4.129v1.193q-.005 1.72-.112 2.612a3.8 3.8 0 0 1-.656 1.723q-.543.789-1.775 1.333 1.445.567 1.994 1.706t.549 3.162v2.122q0 .856.129 1.3.128.445.548.673t1.34.227h.436v1.8h-.986q-1.837 0-2.683-1.033t-.846-3.545v-1.655q0-1.98-.543-2.856-.543-.879-1.989-.967v-1.867q1.155-.066 1.692-.59.538-.521.69-1.333.145-.784.15-2.007V4.798q.013-1.795.297-2.787Q3.187.978 4.04.49 4.89 0 6.515 0h.594v1.79h-.246q-.896 0-1.367.16a1.04 1.04 0 0 0-.655.65q-.18.476-.185 1.529M17.859 7.958v-.65h1.589v3.409h-1.59q-.102-.985-.794-1.504a2.6 2.6 0 0 0-1.597-.518 2.46 2.46 0 0 0-1.395.411 2.7 2.7 0 0 0-.954 1.114 3.5 3.5 0 0 0-.337 1.533q0 1.413.76 2.309.76.895 2.004.895 1.925 0 2.72-1.773l1.485.702q-1.252 2.69-4.283 2.69-1.356 0-2.41-.634a4.3 4.3 0 0 1-1.627-1.739q-.575-1.105-.575-2.45 0-1.32.583-2.398T13.04 7.67a4.37 4.37 0 0 1 2.271-.603q1.486 0 2.548.89m12.808 3.864q0 1.31-.63 2.398a4.699 4.699 0 0 1-4.128 2.356q-1.365 0-2.461-.634a4.5 4.5 0 0 1-1.706-1.722 4.8 4.8 0 0 1-.608-2.398q0-1.37.608-2.45A4.4 4.4 0 0 1 23.44 7.68q1.089-.612 2.47-.612 1.339 0 2.427.646a4.7 4.7 0 0 1 1.71 1.735 4.7 4.7 0 0 1 .621 2.373m-4.758 3.032q.795 0 1.46-.411a2.87 2.87 0 0 0 1.036-1.105q.37-.694.371-1.516 0-.806-.371-1.5a2.96 2.96 0 0 0-1.037-1.117 2.7 2.7 0 0 0-1.476-.424 2.7 2.7 0 0 0-1.46.415q-.665.416-1.044 1.118a3.1 3.1 0 0 0-.38 1.508q0 .805.38 1.507.38.703 1.053 1.114.675.411 1.468.411m17.498-.12v1.576h-3.411v-1.319q-1.365 1.473-3.256 1.474-1.313 0-2.319-.613a4.2 4.2 0 0 1-1.563-1.666 4.9 4.9 0 0 1-.557-2.33q0-1.303.592-2.398a4.56 4.56 0 0 1 1.636-1.744 4.2 4.2 0 0 1 2.263-.646q.88 0 1.67.35.791.352 1.534 1.106V4.96h-1.753V3.401h3.523v11.333zm-6.33.154q.829 0 1.494-.437.664-.436 1.045-1.165.38-.728.38-1.559 0-.84-.38-1.533a2.85 2.85 0 0 0-1.054-1.096 2.9 2.9 0 0 0-1.52-.403q-.82 0-1.464.433a3.05 3.05 0 0 0-1.014 1.148 3.3 3.3 0 0 0-.371 1.529q0 .873.38 1.576.38.702 1.036 1.105.656.402 1.468.402m13.007-7.195v-.386h1.554v2.99h-1.554v-.548q-.777-1.105-2.125-1.105-.707 0-1.157.308t-.449.797q0 .437.341.685.342.249 1.533.437l1.2.231q2.685.489 2.686 2.613 0 1.242-.971 1.996-.972.753-2.578.754-.639 0-1.257-.185a3.9 3.9 0 0 1-1.032-.458v.488h-1.588v-3.083h1.589v.308q.13.65.73 1.045t1.394.394q.872 0 1.373-.304.5-.304.5-.904 0-.437-.397-.655l-.037-.02q-.414-.21-1.56-.43l-.924-.197q-1.373-.274-2.012-.942-.64-.669-.64-1.705 0-.84.471-1.435a2.9 2.9 0 0 1 1.205-.895q.735-.3 1.511-.3 1.304 0 2.194.506m14.259 4.163q0 1.26-.587 2.356a4.5 4.5 0 0 1-1.602 1.73 4.16 4.16 0 0 1-2.25.634q-1.823 0-3.186-1.388v3.58h1.77v1.577h-5.199v-1.576h1.641V8.892h-1.52V7.307h3.308v1.44q.674-.789 1.485-1.174a4 4 0 0 1 1.736-.385q1.287 0 2.288.63 1.002.629 1.559 1.7t.557 2.338m-4.465 3.1q.743 0 1.339-.427.595-.429.933-1.165.336-.737.336-1.56 0-.83-.371-1.528a2.94 2.94 0 0 0-1.019-1.114 2.65 2.65 0 0 0-1.46-.415q-.846 0-1.52.44a3 3 0 0 0-1.044 1.17 3.5 3.5 0 0 0-.372 1.602q0 1.404.894 2.201.895.797 2.284.797m15.676-2.697h-7.608q.165 1.293 1.01 2.043.846.75 2.073.75.898 0 1.666-.37a3.24 3.24 0 0 0 1.287-1.13l1.572.702a4.77 4.77 0 0 1-1.948 1.735 5.9 5.9 0 0 1-2.62.587q-1.469 0-2.608-.608a4.4 4.4 0 0 1-1.775-1.696q-.635-1.088-.635-2.45 0-1.354.626-2.442a4.5 4.5 0 0 1 1.715-1.7 4.8 4.8 0 0 1 2.4-.612q1.435 0 2.5.63 1.067.629 1.68 1.798t.665 2.763m-4.81-3.718q-1.011 0-1.77.672-.76.673-.976 1.778h5.682q-.25-1.106-1.062-1.778a2.85 2.85 0 0 0-1.874-.672m16.03 3.718h-7.609q.165 1.293 1.01 2.043.847.75 2.073.75.898 0 1.667-.37a3.24 3.24 0 0 0 1.287-1.13l1.571.702a4.77 4.77 0 0 1-1.947 1.735 5.9 5.9 0 0 1-2.621.587q-1.468 0-2.608-.608a4.4 4.4 0 0 1-1.774-1.696q-.636-1.088-.635-2.45 0-1.354.626-2.442a4.5 4.5 0 0 1 1.714-1.7 4.8 4.8 0 0 1 2.4-.612q1.435 0 2.5.63 1.068.629 1.68 1.798.614 1.17.665 2.763m-4.81-3.718q-1.01 0-1.771.672-.76.673-.976 1.778H84.9q-.25-1.106-1.062-1.778a2.85 2.85 0 0 0-1.874-.672m15.908-5.14v11.333h1.64v1.576h-3.41v-1.319q-1.365 1.473-3.256 1.474-1.312 0-2.319-.613a4.2 4.2 0 0 1-1.563-1.666 4.9 4.9 0 0 1-.557-2.33q0-1.303.592-2.398a4.56 4.56 0 0 1 1.636-1.744 4.2 4.2 0 0 1 2.263-.646q.88 0 1.67.35.791.352 1.534 1.106V4.96h-1.754V3.401zm-4.724 5.294q-.82 0-1.464.433a3.05 3.05 0 0 0-1.014 1.148 3.3 3.3 0 0 0-.372 1.529q0 .873.38 1.576.381.702 1.037 1.105.655.402 1.468.402.828 0 1.494-.437.664-.436 1.045-1.165.38-.728.38-1.559 0-.84-.38-1.533a2.85 2.85 0 0 0-1.054-1.096 2.9 2.9 0 0 0-1.52-.403M136.418 4.877l.001 1.168q0 1.278.145 2.09.146.81.7 1.333.555.522 1.675.589v1.867q-1.444.089-1.983.967-.537.877-.537 2.856v1.655q0 2.512-.829 3.545-.83 1.035-2.779 1.034h-.918v-1.8h.436q.92 0 1.345-.228a1.06 1.06 0 0 0 .549-.673q.119-.43.123-1.241v-2.181q0-2.023.555-3.162.554-1.14 1.999-1.706-1.243-.544-1.781-1.333a3.9 3.9 0 0 1-.655-1.723l-.01-.08q-.108-.93-.108-2.687V4.19q0-1.1-.179-1.589-.18-.489-.616-.65-.437-.16-1.401-.16h-.257V0h.526q1.703 0 2.549.489t1.148 1.522q.297 1.012.302 2.866"></path><path fill="#000000" fill-rule="evenodd" d="M110.121 17.117c.766.17 1.308.05 1.392.064l.004.001c1.275.691 2.202 1.279 3.097 1.655l-.107.01q-1.092.172-1.572.25c-3.276.533-4.884-.398-4.532-1.83.142-.578.938-.324 1.718-.15m11.004-13.91c2.074 1.534 2.67 2.331 3.774 3.555 2.708 0 4.22 2.026 3.735 5.046-.308 1.921-4.15 1.246-5.06 0q-.912.826-4.483 3.663l-.097.076c-.695.553-3.377.376-3.634.187q.806-1.325 1.161-2.072c.356-.745.605-1.493.605-2.732 0-1.238-.695-2.29-2.166-2.263a.28.28 0 0 0-.274.295c0 .195.145.296.274.296.779 0 1.325.968 1.325 1.673.001.704-.111 1.275-.444 2.134-.287.741-1.444 2.583-1.745 2.767a.278.278 0 0 0 .042.486q.031.015.079.03.1.032.253.071c.262.064.581.121.94.163.987.113 2.094.09 3.274-.12l.045-.009c.352-.064.865-.069 1.372-.003.593.078 1.133.244 1.543.493.36.218.608.49.735.82l.012.036q.08.263.08.566c0 1.083-2.308.434-4.976.318a9 9 0 0 0-.61-.002c-1.089-.055-1.985-.374-3.186-.974l.021-.004s-.092-.038-.238-.106c-.356-.182-.74-.387-1.162-.616h-.003c-.398-.248-.749-.527-.838-.776-.233-.651-.118-.651.715-1.613-1.422.175-1.457.276-3.078.276s-4.292-.083-4.292-1.67q0-1.59 2.161-1.236-.527-2.89 1.807-5.2c4.076-4.035 9.578 1.525 13.35 1.525 1.716 0-3.025-2.693-4.995-3.456s1.131-3.729 3.978-1.624m4.748 5.552c-.31 0-.561.27-.561.605s.251.604.561.604.561-.27.561-.604-.251-.605-.561-.605" clip-rule="evenodd"></path></g><defs><linearGradient id="logoWithText_svg__a" x1="116.774" x2="116.774" y1="2.465" y2="23.5" gradientUnits="userSpaceOnUse"><stop stop-color="#000000"></stop><stop offset="1" stop-color="#000000"></stop></linearGradient></defs></svg>