<svg width="107" height="32" viewBox="0 0 107 32" fill="none" xmlns="http://www.w3.org/2000/svg">
<g clip-path="url(#clip0_73_567)">
<path d="M0.919922 31.3743V30.5251L1.59031 30.3464C2.57355 30.0187 3.06517 29.2737 3.06517 28.1117C3.06517 27.0987 3.06517 26.0857 3.06517 25.0726C3.09497 24.0298 3.10987 23.0019 3.10987 21.9888V5.00559C3.10987 4.37989 3.00559 3.9181 2.79702 3.62011C2.58845 3.2924 2.18621 3.05397 1.59031 2.90503L0.919922 2.72626V1.8771L8.74115 0L9.32216 0.402234L9.14338 6.70391V28.1117C9.17318 28.7076 9.29236 29.1992 9.50093 29.5866C9.73928 29.9441 10.1415 30.1974 10.7076 30.3464L11.3333 30.5251V31.3743H0.919922ZM18.541 6.7933C17.5578 6.7933 16.7236 6.48045 16.0382 5.85475C15.353 5.22905 15.0103 4.43944 15.0103 3.48603C15.0103 2.50279 15.353 1.71318 16.0382 1.11732C16.7236 0.49162 17.5578 0.178771 18.541 0.178771C19.5243 0.178771 20.3586 0.49162 21.0438 1.11732C21.7292 1.71318 22.0718 2.50279 22.0718 3.48603C22.0718 4.43944 21.7292 5.22905 21.0438 5.85475C20.3586 6.48045 19.5243 6.7933 18.541 6.7933ZM13.4014 31.3743V30.5251L14.0718 30.3464C14.6677 30.1676 15.07 29.8994 15.2785 29.5419C15.4871 29.1844 15.6063 28.7076 15.636 28.1117V19.8883C15.636 18.9646 15.636 18.1154 15.636 17.3408C15.636 16.5363 15.6212 15.717 15.5913 14.8827C15.5913 14.2868 15.4722 13.8249 15.2338 13.4972C15.0253 13.1397 14.623 12.9013 14.0271 12.7821L13.4014 12.648V11.8436L21.2226 9.2514L21.7589 9.74302L21.6248 16.0894V28.1564C21.6248 28.7523 21.7292 29.2291 21.9377 29.5866C22.1761 29.9441 22.5784 30.2123 23.1444 30.3911L23.636 30.5251V31.3743H13.4014ZM33.04 31.9553L25.7104 31.3743V30.5251L26.1574 30.4358C27.3194 30.1676 27.9004 29.4227 27.9004 28.2011V4.96089C27.9004 4.36503 27.7811 3.90313 27.5428 3.57542C27.3342 3.24771 26.932 3.00927 26.3361 2.86033L25.7551 2.72626V1.92179L33.3976 0L33.9786 0.402234L33.7998 6.70391V11.3966C35.9152 9.96648 38.1946 9.2514 40.6378 9.2514C43.1406 9.2514 45.2113 10.1751 46.8501 12.0223C48.4889 13.8399 49.3082 16.6555 49.3082 20.4693C49.3082 23.0019 48.8911 25.1322 48.0568 26.8603C47.2225 28.5587 46.1052 29.8399 44.7048 30.7039C43.3045 31.5679 41.7551 32 40.0568 32C38.9246 32 37.7923 31.8511 36.6601 31.5531C35.5577 31.2551 34.5744 30.7933 33.7104 30.1676L33.04 31.9553ZM37.9562 30.0335C38.9395 30.0335 39.8035 29.7505 40.5484 29.1844C41.2933 28.6182 41.8743 27.6499 42.2914 26.2793C42.7085 24.9087 42.9171 23.0316 42.9171 20.648C42.9171 18.2645 42.7235 16.4022 42.3361 15.0615C41.9487 13.7207 41.3827 12.7821 40.6378 12.2458C39.9227 11.7095 39.0587 11.4413 38.0456 11.4413C36.7048 11.4413 35.3342 11.8287 33.9339 12.6034V28.9162C35.1555 29.6611 36.4962 30.0335 37.9562 30.0335ZM62.7632 9.2514C64.6403 9.2514 66.2492 9.63877 67.59 10.4134C68.9308 11.188 69.9587 12.2607 70.6738 13.6313C71.4187 14.9721 71.7911 16.5215 71.7911 18.2793C71.7911 18.6667 71.7762 19.0391 71.7464 19.3966C71.7166 19.7244 71.657 20.0372 71.5676 20.3352H58.1151C58.1449 23.4041 58.711 25.6089 59.8134 26.9497C60.9456 28.2905 62.5844 28.9609 64.7296 28.9609C66.2194 28.9609 67.4261 28.7226 68.3498 28.2458C69.2734 27.7393 70.1226 27.0391 70.8972 26.1452L71.6123 26.8156C70.7185 28.4544 69.4969 29.7355 67.9475 30.6592C66.428 31.5531 64.6104 32 62.495 32C60.3796 32 58.5174 31.5531 56.9084 30.6592C55.2995 29.7654 54.0332 28.4841 53.1095 26.8156C52.2157 25.1173 51.7687 23.0913 51.7687 20.7374C51.7687 18.2942 52.2902 16.2235 53.333 14.5251C54.4056 12.8268 55.7762 11.5307 57.4447 10.6369C59.1431 9.71318 60.9159 9.2514 62.7632 9.2514ZM62.5397 10.5475C61.6757 10.5475 60.9159 10.8008 60.2604 11.3073C59.6347 11.784 59.1282 12.648 58.7408 13.8994C58.3833 15.121 58.1747 16.8492 58.1151 19.0838H66.1151C66.4428 16.0745 66.3237 13.8994 65.7576 12.5587C65.1914 11.2179 64.1188 10.5475 62.5397 10.5475ZM85.2405 32C83.0356 32 81.0989 31.5382 79.4304 30.6145C77.7916 29.6908 76.5104 28.3799 75.5869 26.6816C74.693 24.9832 74.2461 22.9572 74.2461 20.6034C74.2461 18.2495 74.7227 16.2235 75.6762 14.5251C76.6595 12.8268 77.9704 11.5307 79.6092 10.6369C81.2777 9.71318 83.1548 9.2514 85.2405 9.2514C87.3261 9.2514 89.1883 9.71318 90.8271 10.6369C92.4956 11.5307 93.8065 12.8268 94.76 14.5251C95.7433 16.1936 96.2349 18.2198 96.2349 20.6034C96.2349 22.9572 95.773 24.9981 94.8494 26.7263C93.9556 28.4246 92.6892 29.7355 91.0505 30.6592C89.4118 31.5531 87.4751 32 85.2405 32ZM85.2405 30.7486C86.3131 30.7486 87.1771 30.4656 87.8327 29.8994C88.5179 29.3036 89.0095 28.2756 89.3075 26.8156C89.6054 25.3556 89.7544 23.3147 89.7544 20.6927C89.7544 18.041 89.6054 15.9851 89.3075 14.5251C89.0095 13.0354 88.5179 12.0075 87.8327 11.4413C87.1771 10.8455 86.3131 10.5475 85.2405 10.5475C84.1679 10.5475 83.3037 10.8455 82.6483 11.4413C81.9928 12.0075 81.5012 13.0354 81.1734 14.5251C80.8755 15.9851 80.7265 18.041 80.7265 20.6927C80.7265 23.3147 80.8755 25.3556 81.1734 26.8156C81.5012 28.2756 81.9928 29.3036 82.6483 29.8994C83.3037 30.4656 84.1679 30.7486 85.2405 30.7486Z" fill="#000000"/>
<path d="M103.244 31.3742C104.787 31.3742 106.037 30.1236 106.037 28.5809C106.037 27.0382 104.787 25.7876 103.244 25.7876C101.701 25.7876 100.451 27.0382 100.451 28.5809C100.451 30.1236 101.701 31.3742 103.244 31.3742Z" fill="#000000"/>
</g>
<defs>
<clipPath id="clip0_73_567">
<rect width="105.117" height="32" fill="#ffffff" transform="translate(0.919922)"/>
</clipPath>
</defs>
</svg>
