<svg xmlns="http://www.w3.org/2000/svg" xmlns:xlink="http://www.w3.org/1999/xlink" version="1.1" x="0px" y="0px" viewBox="0 0 450 129" style="enable-background:new 0 0 450 129;" xml:space="preserve" class="svg-inject  replaced-svg" width="282" height="81">
<style type="text/css">
	.st0{fill:#000000;}
	.st1{fill:#000000;} .st2{fill:#FFFFFF;}
</style>
<g id="Calque_1">
	<g>
		
			<ellipse transform="matrix(1 8.112026e-04 -8.112026e-04 1 4.420374e-02 -0.1825)" class="st0" cx="225" cy="54.4" rx="74.4" ry="54.4"></ellipse>
	</g>
	<g>
		<path class="st1" d="M42.7,80.8V42.1v-0.4l-11,39.1H23L11.8,41.7l0,0.4l0,38.7H0.1V55V42.1c-0.5-8.4,1.7-12.7,6.4-12.9H17l10.3,34    h0.1l10.1-34h17v51.7H42.7z"></path>
		<path class="st1" d="M102.7,60.4c0,3.5-0.3,6.4-0.9,8.5c-0.8,2.8-2.2,5.3-4.3,7.3c-3.7,3.7-8.5,5.6-14.5,5.6c-2.9,0-5.6-0.4-8-1.3    c-2.8-0.9-5.1-2.3-6.9-4.3C66,74,64.6,71.6,63.9,69c-0.3-1.2-0.6-2.6-0.7-4.1c-0.1-1.2-0.1-2.7-0.1-4.5V29.1h13.2v31.2    c0,1.4,0.1,2.5,0.2,3.5c0.2,1.3,0.5,2.3,0.9,3.2c1.1,2.1,2.9,3.1,5.6,3.1c2.8,0,4.7-1,5.6-3.1c0.4-0.8,0.7-1.9,0.8-3.1    c0.1-0.9,0.1-2.1,0.1-3.6V29.1h13.2V60.4z"></path>
		<path class="st1" d="M141.1,80.8c-3.4,0.3-6.2-1.1-8.3-4.2l-2.9-4.2l-6-8.3h-0.1v16.7h-12.6V55V42.1c0-8.1,2.8-12.5,8.4-12.9h8    c1.7,0,3.1,0,4.2,0.1c1.5,0.1,2.9,0.2,4.1,0.4c3.1,0.6,5.6,1.6,7.6,3.2c4.2,3.4,6.4,8.1,6.4,14.1c0,4.1-1.1,7.6-3.4,10.6    c-2.4,3.1-5.5,5-9.5,5.7l14,17.6H141.1z M134.5,42.3c-1.5-1.1-3.5-1.6-5.9-1.6h-4.8v14.4h4.7c5.8,0,8.7-2.5,8.7-7.4    C137,45.3,136.2,43.6,134.5,42.3z"></path>
		<path class="st1" d="M327.2,40.6v40.5h-13.3V40.6h-14.5V28.9h42.2v11.7H327.2z"></path>
		<path class="st1" d="M348.4,81.1V55V41.9c-0.7-8.7,1.1-13.1,5.3-13.1h27.9v11.7h-20.4v8.1h16.7v11.7h-16.7v9h20.4v11.7H348.4z"></path>
		<path class="st1" d="M429,61.6c-2.7,5.9-6.9,8.8-12.6,8.8c-4.1,0-7.6-1.6-10.2-4.7c-2.5-3-3.8-6.6-3.8-10.8    c0-4.2,1.3-7.7,3.8-10.7c2.7-3.1,6.1-4.6,10.2-4.6c6.1,0,10.3,3,12.6,9.1l10.4-8.5c-5.4-8.2-13.1-12.3-23-12.3    c-7.6,0-14.1,2.6-19.4,7.8c-5.3,5.2-8,11.6-8,19.3s2.7,14.1,8,19.3c5.4,5.2,11.9,7.8,19.5,7.8c6.4,0,11.9-1.9,16.8-5.6L429,61.6z"></path>
		<path class="st2" d="M198.1,53.9c-1,2.6-2.4,4.7-4.2,6.3c-2.1,1.8-4.4,3.1-7.1,3.7c-2,0.5-4.7,0.8-8.1,0.8h-5.8v16.4h-12.8V55    V41.9c0-8.7,2.9-13.1,8.6-13.1h8.5c1.6,0,3,0,4.2,0.1c1.6,0.1,3,0.3,4.3,0.5c3.1,0.6,5.7,1.6,7.6,3.2c4.1,3.4,6.1,8,6.1,13.8    C199.4,49.1,199,51.5,198.1,53.9z M183.9,41.6c-1.4-0.7-3.4-1.1-6.1-1.1h-4.9V53h5.4c2.6,0,4.5-0.4,5.8-1.1c1.7-1,2.5-2.7,2.5-5.2    C186.6,44.3,185.7,42.6,183.9,41.6z"></path>
		<path class="st2" d="M234,81.1c-3.4,0.3-6.2-1.1-8.4-4.2l-3-4.2l-6.1-8.4h-0.1v16.9h-12.8V55V41.9c0-8.2,2.8-12.6,8.5-13.1h8    c1.7,0,3.2,0,4.2,0.1c1.6,0.1,2.9,0.2,4.2,0.4c3.1,0.6,5.7,1.6,7.7,3.2c4.3,3.4,6.4,8.2,6.4,14.3c0,4.1-1.1,7.7-3.4,10.7    c-2.4,3.2-5.6,5.1-9.6,5.7l14.2,17.8H234z M227.3,42.2c-1.5-1.1-3.5-1.6-6-1.6h-4.9v14.5h4.7c5.8,0,8.8-2.5,8.8-7.5    C229.9,45.3,229,43.4,227.3,42.2z"></path>
		<path class="st2" d="M289.4,74.3c-4.8,5.2-10.7,7.8-17.7,7.8c-6.8,0-12.6-2.5-17.5-7.6c-5-5.1-7.4-11.4-7.4-18.8    c0-4,0.6-7.7,1.9-11.2c0.6-1.9,1.7-3.8,3.1-5.9c4.9-7.2,11.6-10.7,20-10.7c7,0,12.9,2.6,17.7,7.8c4.9,5.3,7.3,11.7,7.3,19.3    C296.7,62.7,294.3,69.1,289.4,74.3z M282.2,44.4c-2.5-3.1-6-4.7-10.5-4.7c-4.5,0-8,1.5-10.5,4.5c-2.4,3-3.6,6.5-3.6,10.7    c0,4.3,1.2,7.9,3.6,10.9c2.5,3.1,6,4.7,10.5,4.7c4.5,0,8-1.6,10.5-4.7c2.3-3,3.5-6.5,3.5-10.7C285.7,51,284.5,47.4,282.2,44.4z"></path>
		<g>
			<path class="st1" d="M446.2,30.1c2.1,0,3.9,1.7,3.9,3.8c0,2.2-1.8,3.9-3.9,3.9c-2.1,0-3.9-1.6-3.9-3.9     C442.3,31.7,444.1,30.1,446.2,30.1z M446.2,37.2c1.8,0,3.2-1.4,3.2-3.3c0-1.8-1.4-3.3-3.2-3.3c-1.8,0-3.2,1.4-3.2,3.3     C443,35.8,444.4,37.2,446.2,37.2z M444.7,31.7h1.7c1.1,0,1.6,0.4,1.6,1.3c0,0.8-0.5,1.2-1.2,1.2l1.3,2h-0.7l-1.2-1.9h-0.7v1.9     h-0.7V31.7z M445.4,33.7h0.7c0.6,0,1.2,0,1.2-0.7c0-0.6-0.5-0.7-1-0.7h-0.9V33.7z"></path>
		</g>
	</g>
</g>
<g id="Calque_3">
	<g>
		<path class="st1" d="M13.9,115.9H8.6V129H5.7v-13.1H0.5v-2.1h13.3V115.9z"></path>
		<path class="st1" d="M21.8,120c-0.4-0.1-0.7-0.1-1.1-0.1c-1.3,0-2.1,0.4-2.6,1.3v7.8h-2.8v-11.3h2.7l0.1,1.3    c0.7-1,1.6-1.5,2.8-1.5c0.4,0,0.7,0,1,0.1L21.8,120z"></path>
		<path class="st1" d="M30.9,129c-0.1-0.2-0.2-0.6-0.3-1.1c-0.9,0.8-2,1.3-3.3,1.3c-1.3,0-2.3-0.3-3.1-1c-0.8-0.7-1.2-1.5-1.2-2.4    c0-1.2,0.5-2.1,1.5-2.8c1-0.6,2.4-1,4.2-1h1.7v-0.7c0-0.6-0.2-1.1-0.5-1.4c-0.4-0.4-0.9-0.5-1.6-0.5c-0.6,0-1.2,0.1-1.6,0.4    c-0.4,0.3-0.6,0.7-0.6,1.1h-2.8c0-0.6,0.2-1.2,0.7-1.7c0.5-0.5,1.1-1,1.9-1.3s1.7-0.5,2.6-0.5c1.5,0,2.6,0.3,3.5,1    c0.9,0.7,1.3,1.6,1.3,2.8v5.1c0,1,0.2,1.8,0.5,2.4v0.2H30.9z M27.8,127.2c0.6,0,1.1-0.1,1.6-0.4c0.5-0.2,0.9-0.6,1.1-1v-2.1H29    c-1,0-1.8,0.2-2.3,0.5c-0.5,0.3-0.8,0.8-0.8,1.4c0,0.5,0.2,0.9,0.5,1.2C26.8,127,27.2,127.2,27.8,127.2z"></path>
		<path class="st1" d="M36.5,114.7c0-0.4,0.1-0.7,0.4-1s0.7-0.4,1.2-0.4c0.5,0,0.9,0.1,1.2,0.4s0.4,0.6,0.4,1c0,0.4-0.1,0.7-0.4,1    c-0.3,0.3-0.7,0.4-1.2,0.4c-0.5,0-0.9-0.1-1.2-0.4C36.6,115.4,36.5,115.1,36.5,114.7z M39.5,129h-2.8v-11.3h2.8V129z"></path>
		<path class="st1" d="M46.3,114.9v2.8h2.2v1.9h-2.2v6.3c0,0.4,0.1,0.7,0.3,0.9s0.5,0.3,1,0.3c0.3,0,0.6,0,1-0.1v2    c-0.6,0.2-1.3,0.2-1.8,0.2c-2.2,0-3.2-1.1-3.2-3.2v-6.4h-2.1v-1.9h2.1v-2.8H46.3z"></path>
		<path class="st1" d="M56.3,129.2c-1.8,0-3.2-0.5-4.3-1.5c-1.1-1-1.7-2.4-1.7-4.1v-0.3c0-1.1,0.2-2.1,0.7-3c0.5-0.9,1.2-1.6,2-2.1    c0.9-0.5,1.8-0.7,2.9-0.7c1.7,0,3,0.5,3.9,1.5c0.9,1,1.4,2.4,1.4,4.2v1h-8.2c0.1,0.9,0.4,1.7,1,2.2c0.6,0.5,1.4,0.8,2.3,0.8    c1.3,0,2.3-0.5,3.1-1.4l1.5,1.3c-0.5,0.7-1.2,1.2-2,1.6S57.4,129.2,56.3,129.2z M56,119.5c-0.8,0-1.4,0.2-1.9,0.7s-0.8,1.2-0.9,2    h5.3v-0.2c-0.1-0.9-0.3-1.5-0.8-1.9C57.4,119.7,56.8,119.5,56,119.5z"></path>
		<path class="st1" d="M66.4,117.6l0.1,1.2c0.9-0.9,2.1-1.4,3.6-1.4c1.7,0,2.8,0.6,3.4,1.7c0.9-1.2,2.2-1.7,3.8-1.7    c1.4,0,2.4,0.3,3.1,1c0.7,0.7,1,1.7,1,3.1v7.5h-2.8v-7.4c0-0.7-0.2-1.2-0.5-1.6c-0.3-0.3-0.9-0.5-1.7-0.5c-0.6,0-1.2,0.2-1.6,0.5    c-0.4,0.3-0.7,0.7-0.8,1.2l0,7.8h-2.8v-7.5c0-1.3-0.8-2-2.2-2c-1.1,0-1.9,0.4-2.4,1.2v8.2h-2.8v-11.3H66.4z"></path>
		<path class="st1" d="M90.1,129.2c-1.8,0-3.2-0.5-4.3-1.5c-1.1-1-1.7-2.4-1.7-4.1v-0.3c0-1.1,0.2-2.1,0.7-3c0.5-0.9,1.2-1.6,2-2.1    c0.9-0.5,1.8-0.7,2.9-0.7c1.7,0,3,0.5,3.9,1.5c0.9,1,1.4,2.4,1.4,4.2v1h-8.2c0.1,0.9,0.4,1.7,1,2.2c0.6,0.5,1.4,0.8,2.3,0.8    c1.3,0,2.3-0.5,3.1-1.4l1.5,1.3c-0.5,0.7-1.2,1.2-2,1.6S91.1,129.2,90.1,129.2z M89.7,119.5c-0.8,0-1.4,0.2-1.9,0.7    s-0.8,1.2-0.9,2h5.3v-0.2c-0.1-0.9-0.3-1.5-0.8-1.9C91.1,119.7,90.5,119.5,89.7,119.5z"></path>
		<path class="st1" d="M100.1,117.6l0.1,1.3c0.9-1,2.1-1.5,3.6-1.5c2.6,0,3.9,1.4,4,4.1v7.5H105v-7.4c0-0.7-0.2-1.3-0.5-1.6    c-0.3-0.3-0.9-0.5-1.7-0.5c-1.1,0-2,0.5-2.5,1.4v8.1h-2.8v-11.3H100.1z"></path>
		<path class="st1" d="M114.4,114.9v2.8h2.2v1.9h-2.2v6.3c0,0.4,0.1,0.7,0.3,0.9s0.5,0.3,1,0.3c0.3,0,0.6,0,1-0.1v2    c-0.6,0.2-1.3,0.2-1.8,0.2c-2.2,0-3.2-1.1-3.2-3.2v-6.4h-2.1v-1.9h2.1v-2.8H114.4z"></path>
		<path class="st1" d="M125.9,125.9c0-0.5-0.2-0.8-0.6-1c-0.4-0.2-1.1-0.4-2-0.6c-1-0.2-1.8-0.4-2.4-0.7c-1.4-0.6-2.1-1.5-2.1-2.7    c0-1,0.5-1.8,1.4-2.5c0.9-0.7,2.1-1,3.5-1c1.5,0,2.7,0.3,3.6,1c0.9,0.7,1.4,1.5,1.4,2.6h-2.8c0-0.5-0.2-0.9-0.6-1.2    s-0.9-0.5-1.6-0.5c-0.6,0-1.1,0.1-1.5,0.4c-0.4,0.3-0.6,0.6-0.6,1c0,0.4,0.2,0.7,0.5,0.9c0.4,0.2,1.1,0.4,2.2,0.7    c1.1,0.2,2,0.5,2.6,0.8c0.6,0.3,1.1,0.7,1.4,1.1c0.3,0.4,0.5,0.9,0.5,1.6c0,1-0.5,1.8-1.4,2.5c-0.9,0.6-2.1,0.9-3.7,0.9    c-1,0-1.9-0.2-2.7-0.5c-0.8-0.3-1.4-0.8-1.9-1.4c-0.4-0.6-0.7-1.2-0.7-1.9h2.7c0,0.6,0.3,1.1,0.8,1.4s1.1,0.5,1.8,0.5    c0.7,0,1.3-0.1,1.7-0.4C125.8,126.7,125.9,126.3,125.9,125.9z"></path>
		<path class="st1" d="M143.1,123.2c0-1.7,0.4-3.2,1.3-4.2s2.1-1.6,3.6-1.6c1.3,0,2.4,0.4,3.2,1.3v-5.8h2.8V129h-2.5l-0.1-1.2    c-0.8,0.9-2,1.4-3.4,1.4c-1.5,0-2.6-0.5-3.5-1.6C143.5,126.5,143.1,125.1,143.1,123.2z M145.9,123.5c0,1.2,0.2,2.1,0.7,2.7    s1.2,1,2.1,1c1.1,0,2-0.5,2.5-1.4v-4.8c-0.5-0.9-1.3-1.4-2.5-1.4c-0.9,0-1.6,0.3-2.1,1C146.1,121.2,145.9,122.1,145.9,123.5z"></path>
		<path class="st1" d="M162.7,129.2c-1.8,0-3.2-0.5-4.3-1.5c-1.1-1-1.7-2.4-1.7-4.1v-0.3c0-1.1,0.2-2.1,0.7-3c0.5-0.9,1.2-1.6,2-2.1    c0.9-0.5,1.8-0.7,2.9-0.7c1.7,0,3,0.5,3.9,1.5c0.9,1,1.4,2.4,1.4,4.2v1h-8.2c0.1,0.9,0.4,1.7,1,2.2c0.6,0.5,1.4,0.8,2.3,0.8    c1.3,0,2.3-0.5,3.1-1.4l1.5,1.3c-0.5,0.7-1.2,1.2-2,1.6S163.7,129.2,162.7,129.2z M162.4,119.5c-0.8,0-1.4,0.2-1.9,0.7    s-0.8,1.2-0.9,2h5.3v-0.2c-0.1-0.9-0.3-1.5-0.8-1.9C163.7,119.7,163.1,119.5,162.4,119.5z M163,112.9h3.2l-3.2,3.2l-2.2,0    L163,112.9z"></path>
		<path class="st1" d="M171.1,129v-9.5h-1.9v-1.9h1.9v-1c0-1.3,0.4-2.2,1.2-2.9s1.8-1,3.2-1c0.5,0,1,0.1,1.6,0.2l-0.1,2    c-0.3-0.1-0.7-0.1-1.1-0.1c-1.3,0-2,0.6-2,1.9v1h2.5v1.9h-2.5v9.5H171.1z"></path>
		<path class="st1" d="M178.7,114.7c0-0.4,0.1-0.7,0.4-1s0.7-0.4,1.2-0.4c0.5,0,0.9,0.1,1.2,0.4s0.4,0.6,0.4,1c0,0.4-0.1,0.7-0.4,1    c-0.3,0.3-0.7,0.4-1.2,0.4c-0.5,0-0.9-0.1-1.2-0.4C178.9,115.4,178.7,115.1,178.7,114.7z M181.7,129h-2.8v-11.3h2.8V129z"></path>
		<path class="st1" d="M187.6,117.6l0.1,1.3c0.9-1,2.1-1.5,3.6-1.5c2.6,0,3.9,1.4,4,4.1v7.5h-2.8v-7.4c0-0.7-0.2-1.3-0.5-1.6    c-0.3-0.3-0.9-0.5-1.7-0.5c-1.1,0-2,0.5-2.5,1.4v8.1h-2.8v-11.3H187.6z"></path>
		<path class="st1" d="M198.4,114.7c0-0.4,0.1-0.7,0.4-1s0.7-0.4,1.2-0.4c0.5,0,0.9,0.1,1.2,0.4s0.4,0.6,0.4,1c0,0.4-0.1,0.7-0.4,1    c-0.3,0.3-0.7,0.4-1.2,0.4c-0.5,0-0.9-0.1-1.2-0.4C198.5,115.4,198.4,115.1,198.4,114.7z M201.3,129h-2.8v-11.3h2.8V129z"></path>
		<path class="st1" d="M208.1,114.9v2.8h2.2v1.9h-2.2v6.3c0,0.4,0.1,0.7,0.3,0.9s0.5,0.3,1,0.3c0.3,0,0.6,0,1-0.1v2    c-0.6,0.2-1.3,0.2-1.8,0.2c-2.2,0-3.2-1.1-3.2-3.2v-6.4h-2.1v-1.9h2.1v-2.8H208.1z"></path>
		<path class="st1" d="M212.7,114.7c0-0.4,0.1-0.7,0.4-1s0.7-0.4,1.2-0.4c0.5,0,0.9,0.1,1.2,0.4s0.4,0.6,0.4,1c0,0.4-0.1,0.7-0.4,1    c-0.3,0.3-0.7,0.4-1.2,0.4c-0.5,0-0.9-0.1-1.2-0.4C212.9,115.4,212.7,115.1,212.7,114.7z M215.7,129h-2.8v-11.3h2.8V129z"></path>
		<path class="st1" d="M220,129v-9.5h-1.9v-1.9h1.9v-1c0-1.3,0.4-2.2,1.2-2.9s1.8-1,3.2-1c0.5,0,1,0.1,1.6,0.2l-0.1,2    c-0.3-0.1-0.7-0.1-1.1-0.1c-1.3,0-2,0.6-2,1.9v1h2.5v1.9h-2.5v9.5H220z"></path>
		<path class="st1" d="M234.6,125.9c0-0.5-0.2-0.8-0.6-1c-0.4-0.2-1.1-0.4-2-0.6c-1-0.2-1.8-0.4-2.4-0.7c-1.4-0.6-2.1-1.5-2.1-2.7    c0-1,0.5-1.8,1.4-2.5c0.9-0.7,2.1-1,3.5-1c1.5,0,2.7,0.3,3.6,1s1.4,1.5,1.4,2.6h-2.8c0-0.5-0.2-0.9-0.6-1.2    c-0.4-0.3-0.9-0.5-1.6-0.5c-0.6,0-1.1,0.1-1.5,0.4c-0.4,0.3-0.6,0.6-0.6,1c0,0.4,0.2,0.7,0.5,0.9s1.1,0.4,2.2,0.7    c1.1,0.2,2,0.5,2.6,0.8c0.6,0.3,1.1,0.7,1.4,1.1c0.3,0.4,0.5,0.9,0.5,1.6c0,1-0.5,1.8-1.4,2.5c-0.9,0.6-2.2,0.9-3.7,0.9    c-1,0-1.9-0.2-2.7-0.5c-0.8-0.3-1.4-0.8-1.9-1.4c-0.4-0.6-0.7-1.2-0.7-1.9h2.7c0,0.6,0.3,1.1,0.8,1.4c0.5,0.3,1.1,0.5,1.8,0.5    c0.7,0,1.3-0.1,1.7-0.4C234.4,126.7,234.6,126.3,234.6,125.9z"></path>
		<path class="st1" d="M257.4,127.2c0.7,0,1.3-0.2,1.7-0.6c0.5-0.4,0.7-0.8,0.7-1.4h2.6c0,0.7-0.3,1.4-0.7,2    c-0.5,0.6-1.1,1.1-1.8,1.5c-0.8,0.4-1.6,0.5-2.5,0.5c-1.7,0-3.1-0.5-4.2-1.5c-1-1-1.5-2.4-1.5-4.3v-0.3c0-1.7,0.5-3.1,1.5-4.1    c1-1,2.4-1.6,4.2-1.6c1.5,0,2.7,0.4,3.6,1.2c0.9,0.8,1.4,1.8,1.5,3.1h-2.6c0-0.7-0.3-1.2-0.7-1.6c-0.5-0.4-1-0.6-1.7-0.6    c-0.9,0-1.6,0.3-2.1,0.9c-0.5,0.6-0.7,1.5-0.8,2.7v0.4c0,1.2,0.2,2.1,0.7,2.8C255.8,126.9,256.5,127.2,257.4,127.2z"></path>
		<path class="st1" d="M264.4,123.2c0-1.1,0.2-2.1,0.7-3c0.5-0.9,1.2-1.6,2-2.1c0.9-0.5,1.9-0.7,3-0.7c1.7,0,3.1,0.5,4.1,1.5    c1,1,1.6,2.3,1.7,3.9l0,0.6c0,1.1-0.2,2.1-0.7,3c-0.5,0.9-1.1,1.6-2,2c-0.9,0.5-1.9,0.7-3.1,0.7c-1.8,0-3.2-0.5-4.2-1.6    c-1.1-1.1-1.6-2.5-1.6-4.3V123.2z M267.2,123.4c0,1.2,0.3,2.1,0.8,2.7c0.5,0.7,1.3,1,2.2,1c0.9,0,1.7-0.3,2.2-1    c0.5-0.7,0.8-1.7,0.8-2.9c0-1.1-0.3-2.1-0.8-2.7c-0.5-0.7-1.3-1-2.2-1c-0.9,0-1.6,0.3-2.2,1S267.2,122.1,267.2,123.4z"></path>
		<path class="st1" d="M281.2,117.6l0.1,1.3c0.9-1,2.1-1.5,3.6-1.5c2.6,0,3.9,1.4,4,4.1v7.5H286v-7.4c0-0.7-0.2-1.3-0.5-1.6    c-0.3-0.3-0.9-0.5-1.7-0.5c-1.1,0-2,0.5-2.5,1.4v8.1h-2.8v-11.3H281.2z"></path>
		<path class="st1" d="M295.5,114.9v2.8h2.2v1.9h-2.2v6.3c0,0.4,0.1,0.7,0.3,0.9s0.5,0.3,1,0.3c0.3,0,0.7,0,1-0.1v2    c-0.6,0.2-1.3,0.2-1.8,0.2c-2.2,0-3.2-1.1-3.2-3.2v-6.4h-2.1v-1.9h2.1v-2.8H295.5z"></path>
		<path class="st1" d="M306.6,120c-0.4-0.1-0.8-0.1-1.1-0.1c-1.3,0-2.2,0.4-2.6,1.3v7.8H300v-11.3h2.7l0.1,1.3    c0.7-1,1.6-1.5,2.8-1.5c0.4,0,0.7,0,1,0.1L306.6,120z"></path>
		<path class="st1" d="M313.9,129.2c-1.8,0-3.2-0.5-4.3-1.5c-1.1-1-1.7-2.4-1.7-4.1v-0.3c0-1.1,0.2-2.1,0.7-3s1.2-1.6,2-2.1    c0.9-0.5,1.8-0.7,2.9-0.7c1.7,0,3,0.5,3.9,1.5c0.9,1,1.4,2.4,1.4,4.2v1h-8.2c0.1,0.9,0.4,1.7,1,2.2c0.6,0.5,1.4,0.8,2.3,0.8    c1.3,0,2.3-0.5,3.1-1.4l1.5,1.3c-0.5,0.7-1.2,1.2-2,1.6C315.8,129,314.9,129.2,313.9,129.2z M313.5,119.5c-0.8,0-1.4,0.2-1.9,0.7    c-0.5,0.5-0.8,1.2-0.9,2h5.3v-0.2c-0.1-0.9-0.3-1.5-0.8-1.9C314.9,119.7,314.3,119.5,313.5,119.5z"></path>
		<path class="st1" d="M336.5,129h-2.8v-16.1h2.8V129z"></path>
		<path class="st1" d="M340.4,118.2l-1.4-0.8c0.7-0.9,1.1-1.9,1.1-2.9v-1.7h2.5v1.4c0,0.7-0.2,1.4-0.6,2.2    C341.5,117.2,341,117.8,340.4,118.2z"></path>
		<path class="st1" d="M347.9,118.9c0.9-1,2.1-1.4,3.5-1.4c2.7,0,4,1.4,4,4.1v7.4h-2.8v-7.3c0-0.8-0.2-1.3-0.6-1.7    c-0.4-0.3-0.9-0.5-1.6-0.5c-1.1,0-2,0.5-2.5,1.4v8.1h-2.8v-16.1h2.8V118.9z"></path>
		<path class="st1" d="M366.1,127.9c-0.8,0.9-2,1.3-3.5,1.3c-1.4,0-2.4-0.4-3.1-1.1c-0.7-0.7-1-1.8-1-3.1v-7.4h2.8v7.3    c0,1.4,0.7,2.2,2,2.2c1.4,0,2.3-0.4,2.8-1.3v-8.1h2.8V129h-2.6L366.1,127.9z"></path>
		<path class="st1" d="M374.5,117.6l0.1,1.2c0.9-0.9,2.1-1.4,3.6-1.4c1.7,0,2.8,0.6,3.4,1.7c0.9-1.2,2.2-1.7,3.8-1.7    c1.4,0,2.4,0.3,3.1,1c0.7,0.7,1,1.7,1,3.1v7.5h-2.8v-7.4c0-0.7-0.2-1.2-0.5-1.6c-0.3-0.3-0.9-0.5-1.7-0.5c-0.6,0-1.2,0.2-1.6,0.5    c-0.4,0.3-0.7,0.7-0.8,1.2l0,7.8h-2.8v-7.5c0-1.3-0.8-2-2.2-2c-1.1,0-1.9,0.4-2.4,1.2v8.2h-2.8v-11.3H374.5z"></path>
		<path class="st1" d="M392.7,114.7c0-0.4,0.1-0.7,0.4-1s0.7-0.4,1.2-0.4s0.9,0.1,1.2,0.4c0.3,0.3,0.4,0.6,0.4,1    c0,0.4-0.1,0.7-0.4,1c-0.3,0.3-0.7,0.4-1.2,0.4s-0.9-0.1-1.2-0.4C392.8,115.4,392.7,115.1,392.7,114.7z M395.6,129h-2.8v-11.3h2.8    V129z"></path>
		<path class="st1" d="M398.4,123.2c0-1.7,0.4-3.2,1.3-4.2c0.9-1.1,2.1-1.6,3.6-1.6c1.3,0,2.4,0.4,3.2,1.3v-5.8h2.8V129h-2.5    l-0.1-1.2c-0.8,0.9-2,1.4-3.4,1.4c-1.5,0-2.6-0.5-3.5-1.6C398.9,126.5,398.4,125.1,398.4,123.2z M401.2,123.5    c0,1.2,0.2,2.1,0.7,2.7s1.2,1,2.1,1c1.1,0,2-0.5,2.5-1.4v-4.8c-0.5-0.9-1.3-1.4-2.5-1.4c-0.9,0-1.6,0.3-2.1,1    C401.5,121.2,401.2,122.1,401.2,123.5z"></path>
		<path class="st1" d="M412.5,114.7c0-0.4,0.1-0.7,0.4-1s0.7-0.4,1.2-0.4s0.9,0.1,1.2,0.4c0.3,0.3,0.4,0.6,0.4,1    c0,0.4-0.1,0.7-0.4,1c-0.3,0.3-0.7,0.4-1.2,0.4s-0.9-0.1-1.2-0.4C412.6,115.4,412.5,115.1,412.5,114.7z M415.5,129h-2.8v-11.3h2.8    V129z"></path>
		<path class="st1" d="M422.3,114.9v2.8h2.2v1.9h-2.2v6.3c0,0.4,0.1,0.7,0.3,0.9s0.5,0.3,1,0.3c0.3,0,0.7,0,1-0.1v2    c-0.6,0.2-1.3,0.2-1.8,0.2c-2.2,0-3.2-1.1-3.2-3.2v-6.4h-2.1v-1.9h2.1v-2.8H422.3z"></path>
		<path class="st1" d="M432.4,129.2c-1.8,0-3.2-0.5-4.3-1.5c-1.1-1-1.7-2.4-1.7-4.1v-0.3c0-1.1,0.2-2.1,0.7-3s1.2-1.6,2-2.1    c0.9-0.5,1.8-0.7,2.9-0.7c1.7,0,3,0.5,3.9,1.5c0.9,1,1.4,2.4,1.4,4.2v1h-8.2c0.1,0.9,0.4,1.7,1,2.2c0.6,0.5,1.4,0.8,2.3,0.8    c1.3,0,2.3-0.5,3.1-1.4l1.5,1.3c-0.5,0.7-1.2,1.2-2,1.6C434.3,129,433.4,129.2,432.4,129.2z M432,119.5c-0.8,0-1.4,0.2-1.9,0.7    c-0.5,0.5-0.8,1.2-0.9,2h5.3v-0.2c-0.1-0.9-0.3-1.5-0.8-1.9C433.4,119.7,432.8,119.5,432,119.5z M432.7,112.9h3.2l-3.2,3.2l-2.2,0    L432.7,112.9z"></path>
	</g>
</g>
</svg>