<?xml version="1.0" encoding="UTF-8"?>
<svg id="Layer_1" data-name="Layer 1" xmlns="http://www.w3.org/2000/svg" viewBox="32.00 43.27 719.08 192.05" width="719.08" height="192.05">
  <defs>
    <style>
      .cls-1 {
        fill:#ffffff;
      }
    </style>
  </defs>
  <path fill="#000000" d="M548.23,103.65c-12.14,1.72-21.15,8.7-28.9,17.7V45.24l-30.37,16.67v167.7h30.37v-14.65c1.91,2.47,6,7.15,12.12,11.19,2.86,2,5.95,3.66,9.34,4.77.24.08.51.16.8.26,1.67.57,3.42,1.06,5.25,1.43.95.22,1.8.39,2.42.46.13.02.26,0,.4,0,3.7.49,7.7.51,12.01-.12,41.7-4.32,68.55-48.28,53.97-87.58-9.8-26.43-38.82-45.77-67.41-41.73ZM551.78,132.3c42.69-3.13,50.62,61.48,10.5,70.68-47.96,10.99-54.94-67.42-10.5-70.68Z" fill-rule="evenodd"/>
  <path fill="#000000" d="M743.6,103.16c-9.87,4.5-19.07,10.38-28.78,15.22l-1.07,1.1-.09,59.67c-2.26,21.84-29.62,31.41-45.1,15.59-2.85-2.91-7.38-11.14-7.38-15.15v-76.86l-29.95,16.31.02,70.07c1.61,21.73,21.4,42.24,43.37,43.53,3,.18,6.98.19,9.98,0,10.65-.66,21.51-6.3,28.85-13.85l.65,10.83h29.5s.43,0,.43,0v-126.45h-.43Z"/>
  <path fill="#000000" d="M258.06,110.17l-9.41,6.85v-13.86l-29.93,15.59v110.86h30.37v-74.27c0-4.42,5.52-12.54,8.88-15.38,17.45-14.72,43.66-1.89,43.6,20.58v69.06h29.94v-80.76c-2.47-35.6-42.18-57.68-73.44-38.68Z"/>
  <path fill="#000000" d="M436.42,119.48l-.09,59.67c-2.26,21.84-29.62,31.41-45.1,15.59-2.85-2.91-7.38-11.14-7.38-15.15v-76.86l-29.95,16.31.02,70.07c1.61,21.73,21.4,42.24,43.37,43.53,3,.18,6.98.19,9.98,0,10.65-.66,21.51-6.3,28.85-13.85l.65,10.83h29.5v-126.45c-9.87,4.5-19.07,10.38-28.78,15.22l-1.07,1.1Z"/>
  <path fill="#000000" d="M101.74,195.83c-.36-1.42-1.09-4.54-1.09-5.84v-59.54h39.04v-24.68h-39.04v-60.62l-28.2,15.59v45.04h-33.4v24.68h33.4l-.02,61.73c1.13,19.89,10.37,39.1,32.55,40.47,4.17.26,9.7.22,13.88,0,8.21-.44,16.7-3.03,24.26-6.1l-6.93-23.76c-11.06,3.59-30.52,8.44-34.46-6.95Z"/>
  <polygon points="166.16 229.61 196.09 229.61 196.09 103.16 166.16 118.75 166.16 229.61"/>
  <polygon points="165.72 102.3 196.09 85.19 196.09 63.76 165.72 63.76 165.72 102.3"/>
</svg>