<svg width="307" height="59" viewBox="0 0 307 59" fill="none" xmlns="http://www.w3.org/2000/svg">
<path d="M0 0.80822C0 0.361852 0.361295 0 0.806974 0H15.5567C16.0024 0 16.3636 0.361852 16.3636 0.808219V58.1918C16.3636 58.6381 16.0024 59 15.5567 59H0.806975C0.361295 59 0 58.6381 0 58.1918V0.80822Z" fill="#000000"/>
<path d="M43.6364 0.80822C43.6364 0.361852 43.9976 0 44.4433 0H59.193C59.6387 0 60 0.361852 60 0.808219V58.1918C60 58.6381 59.6387 59 59.193 59H44.4433C43.9976 59 43.6364 58.6381 43.6364 58.1918V0.80822Z" fill="#000000"/>
<path d="M21.8183 24.2989C21.8183 23.8525 22.1796 23.4907 22.6253 23.4907H37.375C37.8207 23.4907 38.182 23.8525 38.182 24.2989V58.1917C38.182 58.6381 37.8207 58.9999 37.375 58.9999H22.6253C22.1796 58.9999 21.8183 58.6381 21.8183 58.1917V24.2989Z" fill="#000000"/>
<path d="M134.76 16.48L125.6 44.48H118.64L112.48 25.52L106.12 44.48H99.2L90 16.48H96.72L103.04 36.16L109.64 16.48H115.64L122.04 36.32L128.56 16.48H134.76Z" fill="#000000"/>
<path d="M149.586 44.96C146.679 44.96 144.053 44.3333 141.706 43.08C139.386 41.8267 137.559 40.1067 136.226 37.92C134.919 35.7067 134.266 33.2267 134.266 30.48C134.266 27.7333 134.919 25.2667 136.226 23.08C137.559 20.8667 139.386 19.1333 141.706 17.88C144.053 16.6267 146.679 16 149.586 16C152.493 16 155.106 16.6267 157.426 17.88C159.746 19.1333 161.573 20.8667 162.906 23.08C164.239 25.2667 164.906 27.7333 164.906 30.48C164.906 33.2267 164.239 35.7067 162.906 37.92C161.573 40.1067 159.746 41.8267 157.426 43.08C155.106 44.3333 152.493 44.96 149.586 44.96ZM149.586 39.44C151.239 39.44 152.733 39.0667 154.066 38.32C155.399 37.5467 156.439 36.48 157.186 35.12C157.959 33.76 158.346 32.2133 158.346 30.48C158.346 28.7467 157.959 27.2 157.186 25.84C156.439 24.48 155.399 23.4267 154.066 22.68C152.733 21.9067 151.239 21.52 149.586 21.52C147.933 21.52 146.439 21.9067 145.106 22.68C143.773 23.4267 142.719 24.48 141.946 25.84C141.199 27.2 140.826 28.7467 140.826 30.48C140.826 32.2133 141.199 33.76 141.946 35.12C142.719 36.48 143.773 37.5467 145.106 38.32C146.439 39.0667 147.933 39.44 149.586 39.44Z" fill="#000000" fill-rule="evenodd"/>
<path d="M181.336 44.96C178.429 44.96 175.803 44.3333 173.456 43.08C171.136 41.8267 169.309 40.1067 167.976 37.92C166.669 35.7067 166.016 33.2267 166.016 30.48C166.016 27.7333 166.669 25.2667 167.976 23.08C169.309 20.8667 171.136 19.1333 173.456 17.88C175.803 16.6267 178.429 16 181.336 16C184.243 16 186.856 16.6267 189.176 17.88C191.496 19.1333 193.323 20.8667 194.656 23.08C195.989 25.2667 196.656 27.7333 196.656 30.48C196.656 33.2267 195.989 35.7067 194.656 37.92C193.323 40.1067 191.496 41.8267 189.176 43.08C186.856 44.3333 184.243 44.96 181.336 44.96ZM181.336 39.44C182.989 39.44 184.483 39.0667 185.816 38.32C187.149 37.5467 188.189 36.48 188.936 35.12C189.709 33.76 190.096 32.2133 190.096 30.48C190.096 28.7467 189.709 27.2 188.936 25.84C188.189 24.48 187.149 23.4267 185.816 22.68C184.483 21.9067 182.989 21.52 181.336 21.52C179.683 21.52 178.189 21.9067 176.856 22.68C175.523 23.4267 174.469 24.48 173.696 25.84C172.949 27.2 172.576 28.7467 172.576 30.48C172.576 32.2133 172.949 33.76 173.696 35.12C174.469 36.48 175.523 37.5467 176.856 38.32C178.189 39.0667 179.683 39.44 181.336 39.44Z" fill="#000000" fill-rule="evenodd"/>
<path d="M217.366 44.48L211.966 36.68H211.646H206.006V44.48H199.526V16.48H211.646C214.126 16.48 216.273 16.8933 218.086 17.72C219.926 18.5467 221.339 19.72 222.326 21.24C223.313 22.76 223.806 24.56 223.806 26.64C223.806 28.72 223.299 30.52 222.286 32.04C221.299 33.5333 219.886 34.68 218.046 35.48L224.326 44.48H217.366ZM217.246 26.64C217.246 25.0667 216.739 23.8667 215.726 23.04C214.713 22.1867 213.233 21.76 211.286 21.76H206.006V31.52H211.286C213.233 31.52 214.713 31.0933 215.726 30.24C216.739 29.3867 217.246 28.1867 217.246 26.64Z" fill="#000000" fill-rule="evenodd"/>
<path d="M232.349 21.76H223.389V16.48H247.789V21.76H238.829V44.48H232.349V21.76Z" fill="#000000"/>
<path d="M262.445 44.96C259.539 44.96 256.912 44.3333 254.565 43.08C252.245 41.8267 250.419 40.1067 249.085 37.92C247.779 35.7067 247.125 33.2267 247.125 30.48C247.125 27.7333 247.779 25.2667 249.085 23.08C250.419 20.8667 252.245 19.1333 254.565 17.88C256.912 16.6267 259.539 16 262.445 16C265.352 16 267.965 16.6267 270.285 17.88C272.605 19.1333 274.432 20.8667 275.765 23.08C277.099 25.2667 277.765 27.7333 277.765 30.48C277.765 33.2267 277.099 35.7067 275.765 37.92C274.432 40.1067 272.605 41.8267 270.285 43.08C267.965 44.3333 265.352 44.96 262.445 44.96ZM262.445 39.44C264.099 39.44 265.592 39.0667 266.925 38.32C268.259 37.5467 269.299 36.48 270.045 35.12C270.819 33.76 271.205 32.2133 271.205 30.48C271.205 28.7467 270.819 27.2 270.045 25.84C269.299 24.48 268.259 23.4267 266.925 22.68C265.592 21.9067 264.099 21.52 262.445 21.52C260.792 21.52 259.299 21.9067 257.965 22.68C256.632 23.4267 255.579 24.48 254.805 25.84C254.059 27.2 253.685 28.7467 253.685 30.48C253.685 32.2133 254.059 33.76 254.805 35.12C255.579 36.48 256.632 37.5467 257.965 38.32C259.299 39.0667 260.792 39.44 262.445 39.44Z" fill="#000000" fill-rule="evenodd"/>
<path d="M306.315 16.48V44.48H300.995L287.035 27.48V44.48H280.635V16.48H285.995L299.915 33.48V16.48H306.315Z" fill="#000000"/>
</svg>
